<?xml version="1.0" standalone="no"?>
<!DOCTYPE svg PUBLIC "-//W3C//DTD SVG 20010904//EN"
 "http://www.w3.org/TR/2001/REC-SVG-20010904/DTD/svg10.dtd">
<svg version="1.0" xmlns="http://www.w3.org/2000/svg"
 width="1024.000000pt" height="1024.000000pt" viewBox="0 0 1024.000000 1024.000000"
 preserveAspectRatio="xMidYMid meet">

<g transform="translate(0.000000,1024.000000) scale(0.100000,-0.100000)"
fill="#000000" stroke="none">
<path d="M4860 8950 c-566 -42 -1094 -196 -1574 -457 -709 -386 -1277 -978
-1630 -1698 -199 -403 -315 -801 -372 -1275 -25 -200 -25 -636 -1 -843 76
-645 286 -1214 643 -1739 574 -846 1453 -1430 2452 -1627 264 -53 410 -65 742
-65 328 0 427 8 687 55 785 141 1508 526 2073 1105 606 621 963 1370 1076
2259 23 175 26 639 6 820 -85 770 -363 1441 -847 2045 -119 150 -390 423 -535
542 -600 489 -1288 780 -2040 863 -175 19 -522 27 -680 15z m585 -371 c1114
-95 2138 -754 2709 -1743 517 -896 606 -1999 239 -2971 -392 -1040 -1276
-1844 -2351 -2139 -610 -168 -1276 -165 -1882 10 -373 107 -755 292 -1069 517
-602 432 -1044 1026 -1283 1727 -126 369 -181 709 -181 1120 0 264 14 422 59
655 225 1173 1035 2152 2148 2595 508 202 1040 278 1611 229z"/>
<path d="M2610 6947 c0 -9 1853 -4234 1880 -4287 25 -48 66 -85 125 -112 50
-23 51 -23 500 -23 337 0 461 3 492 13 24 7 63 32 92 60 51 47 53 51 987 2182
515 1174 941 2144 947 2155 6 11 -17 -5 -51 -37 -188 -174 -419 -305 -702
-398 -223 -74 -483 -119 -812 -139 -123 -8 -167 -14 -207 -32 -61 -26 -122
-89 -145 -150 -9 -24 -147 -402 -305 -839 -159 -437 -292 -788 -295 -780 -3 8
-139 381 -301 828 -163 448 -307 830 -321 851 -59 89 -114 108 -369 126 -223
16 -313 27 -460 56 -378 74 -697 218 -948 426 -42 36 -84 74 -92 86 -8 12 -15
18 -15 14z"/>
</g>
</svg>
